<?xml version="1.0" standalone="yes"?>

<svg version="1.1" viewBox="0.0 0.0 456.3333333333333 453.4199475065617" fill="none" stroke="none" stroke-linecap="square" stroke-miterlimit="10" xmlns="http://www.w3.org/2000/svg" xmlns:xlink="http://www.w3.org/1999/xlink"><clipPath id="p.0"><path d="m0 0l456.33334 0l0 453.41995l-456.33334 0l0 -453.41995z" clip-rule="nonzero"></path></clipPath><g clip-path="url(#p.0)"><path fill="#000000" fill-opacity="0.0" d="m0 0l456.33334 0l0 453.41995l-456.33334 0z" fill-rule="evenodd"></path><path fill="#000000" fill-opacity="0.0" d="m13.228347 229.07086l0 0c0 -117.67579 95.39507 -213.07086 213.07086 -213.07086l0 0c56.509903 0 110.70531 22.448475 150.66386 62.407013c39.958527 39.958534 62.407013 94.153946 62.407013 150.66385l0 0c0 117.67578 -95.39508 213.07086 -213.07088 213.07086l0 0c-117.67579 0 -213.07086 -95.39508 -213.07086 -213.07086z" fill-rule="evenodd"></path><path stroke="#000000" stroke-width="16.0" stroke-linejoin="round" stroke-linecap="butt" d="m13.228347 229.07086l0 0c0 -117.67579 95.39507 -213.07086 213.07086 -213.07086l0 0c56.509903 0 110.70531 22.448475 150.66386 62.407013c39.958527 39.958534 62.407013 94.153946 62.407013 150.66385l0 0c0 117.67578 -95.39508 213.07086 -213.07088 213.07086l0 0c-117.67579 0 -213.07086 -95.39508 -213.07086 -213.07086z" fill-rule="evenodd"></path><path fill="#000000" fill-opacity="0.0" d="m15.322835 50.929134l373.95276 0l0 160.62991l-373.95276 0z" fill-rule="evenodd"></path><path fill="#000000" d="m136.99294 252.92914q-23.796867 0 -41.406242 -8.703125q-17.59375 -8.703125 -27.0 -24.703125q-9.390629 -16.0 -9.390629 -37.1875q0 -29.40625 11.093754 -52.203125q11.109375 -22.796883 30.109375 -35.296883q19.0 -12.5 42.203117 -12.5q21.59375 0 32.796875 11.09375q11.203125 11.09375 11.203125 29.296875q0 12.203133 -4.3125 19.609383q-4.296875 7.390625 -12.296875 7.390625q-5.59375 0 -8.796875 -2.59375q-3.203125 -2.609375 -3.203125 -7.609375q0 -1.796875 0.8125 -6.59375q1.1875 -6.0000076 1.1875 -9.593758q0 -18.203125 -19.390625 -18.203125q-13.203117 0 -25.203117 8.609375q-12.0 8.59375 -19.40625 25.296883q-7.390625 16.6875 -7.390625 39.6875q0 24.0 13.390625 37.109375q13.40625 13.09375 39.609367 13.09375q13.0 0 26.296875 -3.296875q13.296875 -3.296875 29.5 -10.109375q3.0 -1.1875 5.0 -1.1875q3.203125 0 4.796875 2.40625q1.609375 2.390625 1.609375 6.1875q0 12.203125 -13.203125 18.0q-14.203125 6.203125 -29.5 9.109375q-15.296875 2.890625 -29.109375 2.890625zm241.40315 -45.59375q2.609375 0 4.109375 2.40625q1.5 2.390625 1.5 6.59375q0 7.796875 -3.8125 12.390625q-19.796875 24.203125 -42.1875 24.203125q-19.40625 0 -31.015625 -15.0q-11.59375 -15.0 -11.59375 -43.0q0 -6.796875 0.609375 -13.59375q-13.203125 2.390625 -28.8125 3.59375q-10.390625 0.796875 -14.1875 1.0q-4.0 20.40625 -11.203125 50.0q-4.203125 17.40625 -16.0 17.40625q-12.796875 0 -12.796875 -11.609375q0 -2.59375 1.0 -7.203125q6.796875 -27.390625 10.796875 -46.390625l-9.609375 0.390625q-6.59375 0 -9.59375 -2.296875q-3.0 -2.296875 -3.0 -7.5q0 -6.59375 3.796875 -9.6875q3.796875 -3.109375 12.609375 -3.515625l10.59375 -0.390625q5.203125 -28.203125 5.203125 -43.000008q0 -9.40625 -2.8125 -12.796875q-2.796875 -3.40625 -7.390625 -3.40625q-14.0 0 -31.59375 23.406258q-2.609375 3.390625 -5.8125 3.390625q-2.796875 0 -4.796875 -2.59375q-2.0 -2.6093826 -2.0 -6.6093826q0 -6.1875 5.0 -13.1875q8.796875 -12.203125 22.203125 -20.09375q13.40625 -7.90625 27.203125 -7.90625q13.0 0 20.09375 8.90625q7.109375 8.890625 7.109375 27.6875q0 16.593758 -4.8125 45.000008l19.609375 -1.0q12.59375 -0.59375 21.59375 -2.0q3.609375 -22.0 11.0 -41.203133q7.40625 -19.203125 18.40625 -31.203125q11.0 -12.0 24.59375 -12.0q10.0 0 15.796875 7.90625q5.8125 7.90625 5.8125 20.703125q0 49.593758 -50.609375 68.79688q-0.59375 8.0 -0.59375 16.59375q0 21.0 5.1875 29.8125q5.203125 8.796875 14.609375 8.796875q8.203125 0 15.0 -4.296875q6.796875 -4.3125 15.40625 -14.703125q2.390625 -2.796875 5.390625 -2.796875zm-27.0 -113.40626q-4.390625 0 -9.296875 8.0q-4.90625 8.0 -9.3125 21.796875q-4.390625 13.796883 -6.984375 30.203133q16.0 -6.59375 23.59375 -18.796875q7.609375 -12.203133 7.609375 -31.406258q0 -4.59375 -1.609375 -7.1875q-1.59375 -2.609375 -4.0 -2.609375z" fill-rule="nonzero"></path><path fill="#000000" fill-opacity="0.0" d="m133.70079 272.09448l185.19685 0l0 112.44095l-185.19685 0z" fill-rule="evenodd"></path><path fill="#000000" d="m155.59213 338.59824l41.28125 -17.375l3.75 11.609375l-30.140625 11.71875l30.140625 11.71875l-3.75 11.609375l-41.28125 -17.375l0 -11.90625zm62.012344 52.421875l-14.6875 0l32.265625 -92.9375l14.5 0l-32.078125 92.9375zm79.405106 -40.515625l-41.28125 17.375l-3.75 -11.609375l30.140625 -11.71875l-30.140625 -11.71875l3.75 -11.609375l41.28125 17.375l0 11.90625z" fill-rule="nonzero"></path></g></svg>

